<?xml version="1.0" standalone="no"?>
<!DOCTYPE svg PUBLIC "-//W3C//DTD SVG 20010904//EN"
 "http://www.w3.org/TR/2001/REC-SVG-20010904/DTD/svg10.dtd">
<svg version="1.0" xmlns="http://www.w3.org/2000/svg"
 width="260.000000pt" height="260.000000pt" viewBox="0 0 260.000000 260.000000"
 preserveAspectRatio="xMidYMid meet">
<metadata>
Created by potrace 1.14, written by Peter Selinger 2001-2017
</metadata>
<g transform="translate(0.000000,260.000000) scale(0.100000,-0.100000)"
fill="#000000" stroke="none">
<path d="M1036 2046 c19 -15 15 -28 -11 -32 -8 -1 -13 2 -9 7 3 5 10 6 16 3 7
-4 8 -2 4 4 -5 9 -13 9 -27 2 -11 -7 -17 -16 -12 -23 4 -7 -2 -5 -12 3 -17 14
-18 14 -5 -10 12 -22 12 -24 -2 -12 -13 10 -18 10 -24 1 -4 -8 -3 -9 4 -5 17
10 15 -9 -3 -24 -8 -7 -13 -15 -11 -19 3 -4 -6 -7 -19 -7 -13 0 -21 4 -19 8 3
5 10 5 16 2 7 -4 8 -2 4 5 -4 6 -12 9 -17 5 -6 -3 -17 2 -25 12 -14 18 -14 18
-5 -3 16 -31 -3 -39 -30 -12 -18 18 -21 19 -16 5 5 -13 3 -17 -6 -13 -8 3 -20
1 -28 -5 -11 -8 -10 -9 4 -4 21 7 22 -7 2 -28 -17 -17 -20 -30 -5 -21 6 3 10
1 10 -4 0 -6 -7 -11 -16 -11 -8 0 -13 -4 -10 -8 3 -5 0 -9 -7 -10 -7 -1 -23
-3 -37 -4 -14 -2 -25 -9 -25 -18 0 -8 -8 -15 -17 -15 -10 0 -23 -7 -30 -15
-11 -12 -11 -12 5 -1 13 10 17 11 17 1 0 -10 3 -10 14 -1 9 8 16 8 20 2 4 -5
2 -12 -4 -16 -5 -3 -10 -3 -10 2 0 4 -5 1 -10 -7 -7 -11 -10 -11 -10 -2 0 7
-5 10 -10 7 -6 -4 -7 -12 -3 -18 3 -7 -4 -3 -18 8 -15 13 -19 14 -11 4 16 -21
24 -62 11 -54 -5 4 -7 10 -4 15 3 5 1 11 -4 15 -6 3 -7 -6 -4 -22 3 -16 5 -36
5 -46 -1 -10 4 -15 10 -11 7 4 8 2 4 -5 -6 -9 -11 -9 -24 1 -13 11 -14 11 -7
-2 13 -20 15 -40 5 -40 -9 0 -8 -19 3 -37 4 -6 4 -19 1 -30 -6 -17 -6 -17 8 1
16 21 43 13 34 -10 -4 -11 1 -13 22 -8 25 5 25 4 -6 -12 -18 -9 -30 -19 -28
-21 3 -3 11 -1 18 3 32 20 43 11 45 -38 1 -26 -3 -46 -7 -43 -5 3 -6 18 -4 32
3 15 2 25 -1 21 -4 -3 -7 -12 -9 -20 -1 -7 -5 -19 -10 -26 -5 -8 -3 -12 6 -10
7 2 12 -3 10 -10 -1 -8 2 -11 7 -8 5 3 11 -3 14 -15 4 -16 3 -18 -8 -9 -10 8
-15 8 -21 -1 -4 -7 -3 -9 3 -6 16 10 26 -24 12 -37 -9 -8 -10 -8 -5 1 3 6 1
15 -6 19 -7 4 -10 4 -6 -1 4 -4 4 -13 -2 -19 -9 -11 2 -15 52 -19 9 -1 14 -5
11 -10 -2 -4 -14 -5 -26 -2 -12 2 -16 2 -9 -1 10 -5 10 -9 1 -20 -9 -12 -6
-11 17 1 38 20 61 19 73 -2 6 -11 11 -13 11 -5 0 7 4 11 9 8 5 -4 12 0 14 6 4
10 6 10 6 0 1 -7 5 -11 9 -8 4 2 14 -4 21 -16 7 -11 8 -17 3 -14 -5 3 -9 -7
-8 -23 1 -28 2 -29 45 -26 26 2 39 0 30 -5 -7 -5 -16 -7 -20 -4 -4 2 -11 0
-14 -6 -4 -6 -3 -9 2 -8 12 4 54 -28 46 -35 -3 -4 -1 -7 5 -7 7 0 12 5 12 12
0 6 3 8 6 5 4 -4 1 -13 -6 -22 -15 -18 0 -20 19 -2 11 9 13 9 7 0 -5 -8 -1
-13 11 -13 13 0 15 -2 5 -9 -7 -4 -12 -14 -10 -22 2 -8 -3 -13 -9 -12 -7 2
-12 0 -11 -5 2 -12 -14 -42 -23 -42 -4 0 -6 8 -3 18 5 13 4 14 -4 3 -13 -18
-4 -43 12 -34 6 3 3 -3 -7 -14 -9 -11 -15 -23 -12 -26 3 -4 2 -5 -2 -2 -3 3
-13 -1 -21 -7 -17 -15 -44 -20 -36 -7 3 5 -1 11 -8 14 -8 3 -14 15 -15 25 -1
13 2 18 9 14 7 -4 8 -2 4 4 -4 7 -16 17 -28 23 -12 7 -18 7 -14 1 4 -6 -2 -8
-14 -5 -11 3 -20 8 -20 12 0 4 -13 7 -29 7 -17 0 -28 -3 -25 -8 3 -4 -7 -8
-21 -8 -15 0 -24 -4 -20 -10 4 -6 11 -8 16 -5 5 4 6 -2 2 -11 -4 -11 -8 -13
-11 -6 -5 15 -32 16 -32 1 0 -5 5 -7 10 -4 6 3 10 -1 10 -10 0 -9 -4 -13 -10
-10 -10 6 -14 -6 -11 -35 1 -11 0 -12 -7 -3 -6 10 -12 10 -25 0 -20 -14 -35
-73 -16 -61 7 4 9 3 5 -4 -3 -6 -16 -9 -27 -7 -17 3 -18 1 -9 -9 7 -10 8 -16
0 -19 -6 -3 -5 -4 2 -3 7 2 12 8 11 14 -2 6 4 9 13 5 12 -4 13 -8 3 -13 -7 -5
-9 -16 -5 -25 6 -16 4 -16 -11 -4 -16 12 -17 12 -6 -1 16 -21 17 -31 1 -42
-10 -8 -10 -9 2 -5 11 3 16 -2 17 -15 2 -15 -1 -17 -11 -9 -9 8 -13 7 -13 -4
0 -8 4 -12 9 -9 4 3 8 -1 8 -8 0 -9 3 -9 10 2 9 13 14 7 11 -12 0 -5 5 -7 12
-5 6 1 11 -4 9 -11 -1 -8 2 -11 7 -8 11 7 24 -22 16 -35 -4 -5 1 -6 10 -3 13
5 12 11 -10 40 -14 19 -22 34 -17 34 5 0 15 -11 22 -25 10 -19 16 -22 22 -13
7 10 8 9 7 -2 -3 -32 2 -48 17 -54 8 -3 12 -2 9 4 -3 6 -2 10 3 10 6 0 12 -6
15 -14 6 -14 30 -16 43 -3 12 12 26 8 18 -5 -4 -7 -3 -8 5 -4 6 4 9 11 6 16
-3 5 0 12 6 16 8 4 9 3 5 -4 -4 -7 -2 -12 5 -12 8 0 8 -5 -2 -17 -11 -16 -11
-16 1 -5 8 7 15 17 15 23 0 5 3 9 8 9 4 0 14 0 23 0 8 0 12 -5 9 -10 -5 -8
-12 -7 -23 2 -15 11 -15 11 -5 -3 7 -9 9 -20 5 -25 -4 -4 0 -3 9 4 9 6 20 8
24 4 5 -4 5 -1 1 6 -4 6 -3 12 2 12 5 0 8 11 7 25 -2 14 2 23 8 22 7 -1 11 3
10 9 -1 6 5 11 12 11 11 0 12 -4 4 -13 -7 -8 -7 -14 1 -19 6 -4 9 -1 8 7 -2 7
3 12 10 10 10 -2 10 2 1 19 -9 17 -8 20 2 14 9 -6 10 -3 5 10 -5 15 -4 16 8 6
11 -9 20 -10 33 -2 10 6 14 11 9 11 -6 0 -2 6 9 13 14 11 15 16 5 22 -9 6 -11
4 -5 -5 5 -8 4 -11 -3 -6 -6 3 -13 -3 -17 -14 -4 -11 -10 -18 -15 -15 -14 9
32 56 48 50 9 -3 12 0 9 8 -3 8 -2 19 3 26 5 10 9 9 13 -4 5 -10 3 -14 -5 -9
-7 4 -8 3 -4 -5 11 -17 25 -4 21 19 -2 12 0 18 6 15 5 -4 7 -11 4 -16 -4 -5
-1 -9 5 -9 7 0 9 7 6 15 -8 20 -14 42 -9 32 3 -4 10 -4 15 -1 7 4 8 2 4 -4 -4
-7 -2 -12 3 -12 15 0 14 27 -1 33 -10 4 -10 7 0 18 8 8 12 9 10 2 -2 -9 5 -16
15 -12 14 7 67 4 67 -3 0 -5 -5 -6 -12 -2 -7 4 -8 3 -4 -5 4 -6 11 -9 16 -6 5
3 11 1 15 -5 3 -5 1 -10 -6 -10 -7 0 -10 -3 -6 -6 3 -3 13 -2 22 4 16 8 16 10
1 15 -9 4 -16 12 -16 18 0 7 18 -6 41 -29 22 -23 47 -46 56 -51 13 -7 10 -8
-10 -8 -15 0 -24 3 -21 8 3 5 -1 7 -8 6 -7 -2 -10 -2 -5 0 4 3 7 9 7 14 0 6
-5 7 -12 3 -7 -5 -8 -3 -3 6 6 9 4 11 -5 5 -9 -6 -11 -4 -5 6 8 12 6 12 -8 0
-20 -16 -22 -22 -5 -18 7 1 12 -4 13 -10 0 -15 45 -48 45 -34 0 7 8 7 24 0 19
-9 22 -14 13 -24 -7 -7 -15 -11 -19 -9 -4 2 -10 0 -13 -6 -4 -6 -3 -10 2 -9
21 4 34 -2 27 -13 -4 -6 -3 -9 2 -5 5 3 14 -5 20 -18 11 -23 11 -23 -11 -9
-16 10 -25 12 -30 4 -3 -6 -1 -9 7 -8 7 2 12 -3 10 -10 -1 -8 2 -11 8 -7 5 3
10 1 10 -5 0 -6 5 -8 11 -4 6 3 3 -6 -6 -22 -9 -16 -11 -22 -4 -13 16 18 43
14 32 -4 -5 -9 -3 -9 8 0 9 8 20 9 29 3 19 -12 30 -12 30 -2 0 5 -6 9 -12 10
-25 2 -48 8 -54 15 -4 3 4 4 16 2 12 -2 25 -7 28 -10 3 -2 12 1 20 8 13 9 14
9 8 0 -6 -12 5 -18 27 -14 4 0 7 -3 7 -8 0 -5 8 -8 18 -7 9 2 21 -2 25 -8 6
-7 7 -6 5 3 -2 8 -11 15 -20 17 -9 1 -24 7 -35 12 -16 10 -16 11 5 9 12 -1 22
-6 22 -11 0 -5 3 -6 6 -3 4 3 15 2 25 -3 9 -6 19 -6 21 -1 2 4 13 -5 26 -20
16 -19 19 -30 11 -35 -8 -5 -9 -3 -4 6 6 9 4 11 -5 5 -9 -5 -11 -4 -6 3 5 8 1
10 -10 5 -14 -5 -16 -3 -10 13 6 15 4 16 -5 7 -9 -9 -3 -20 26 -47 20 -19 34
-28 31 -19 -5 11 -2 14 10 9 8 -3 18 -6 21 -6 3 0 -1 -8 -8 -17 -13 -17 -12
-17 6 -2 12 10 35 16 58 15 21 -1 43 4 48 11 8 9 16 10 30 2 26 -13 40 -3 35
25 -3 14 1 23 10 23 7 0 11 -4 8 -9 -3 -4 0 -8 7 -8 6 0 9 8 6 20 -3 10 1 24
9 31 8 6 14 8 14 4 0 -4 8 -1 17 6 11 10 14 10 9 2 -4 -7 -2 -13 3 -13 14 0
14 43 1 56 -7 7 -6 11 4 11 8 0 13 -4 11 -8 -7 -11 20 -18 35 -9 9 6 8 10 -6
20 -16 9 -16 11 -2 6 10 -3 20 -1 23 4 4 6 1 10 -6 10 -7 0 -9 3 -6 6 4 4 14
1 23 -7 16 -13 16 -12 6 8 -18 33 -14 38 9 12 11 -13 17 -17 12 -9 -8 15 -9
21 -12 41 0 5 -7 7 -14 3 -9 -6 -9 -4 1 7 15 16 16 33 0 23 -7 -5 -8 -3 -4 5
5 7 14 10 22 7 8 -3 13 0 11 6 -1 7 5 12 13 13 8 0 15 2 15 5 0 12 31 37 39
32 5 -3 6 1 1 8 -6 10 -4 12 11 6 15 -6 16 -5 7 5 -10 10 -18 8 -38 -11 -13
-12 -22 -27 -19 -31 3 -5 1 -9 -4 -9 -5 0 -12 9 -15 19 -3 14 -1 18 10 14 8
-3 13 0 11 8 -2 7 3 14 10 15 6 1 15 2 18 3 4 0 1 8 -6 16 -15 18 -13 21 20
34 18 7 20 10 8 10 -19 1 -21 8 -18 55 1 21 -2 26 -12 21 -10 -6 -11 -5 0 6
16 17 16 32 0 24 -7 -4 -4 0 6 9 10 8 23 13 27 10 5 -3 9 0 9 6 0 7 -7 10 -15
6 -12 -4 -14 0 -10 22 l6 27 -15 -25 c-18 -29 -21 -21 -5 14 8 16 17 23 28 19
13 -4 14 -3 1 5 -8 7 -19 7 -25 2 -7 -6 -11 -3 -11 9 0 13 7 17 24 15 16 -2
20 1 14 9 -10 14 -10 27 0 43 4 6 1 11 -7 11 -8 0 -11 -5 -8 -10 3 -6 1 -7 -6
-3 -6 4 -9 12 -6 17 4 5 0 9 -7 9 -10 0 -10 2 0 9 17 11 17 21 0 33 -10 8 -10
9 2 5 8 -2 15 -13 14 -24 -1 -11 5 -20 13 -20 9 0 10 4 4 10 -7 7 -7 16 0 28
7 14 6 17 -5 13 -8 -3 -17 -1 -21 5 -3 6 0 11 7 11 10 0 10 2 -1 9 -8 5 -20 7
-28 4 -7 -3 -13 2 -13 12 0 9 5 13 10 10 6 -3 10 -1 10 4 0 14 -17 14 -25 1
-7 -11 -41 -8 -52 5 -5 4 -3 6 2 2 6 -3 17 3 24 15 7 11 8 17 2 13 -6 -3 -11
1 -11 10 0 9 4 14 9 11 5 -4 8 2 6 11 -1 10 1 23 6 29 5 7 3 11 -6 11 -8 0
-11 -5 -8 -11 3 -6 0 -6 -7 1 -10 9 -10 15 -2 26 10 11 6 14 -23 12 -38 -3
-48 4 -36 24 6 10 10 9 15 -4 6 -18 26 -12 26 8 0 8 -3 8 -9 -1 -7 -11 -9 -11
-14 1 -3 9 -16 13 -31 12 -14 -2 -26 1 -26 6 0 6 8 9 18 7 10 -2 17 3 17 12 0
8 5 18 10 22 6 5 5 8 -3 8 -7 0 -10 5 -6 12 4 6 3 8 -4 4 -6 -3 -9 -19 -7 -34
2 -15 2 -21 -1 -14 -3 6 -11 9 -17 6 -8 -5 -8 -3 0 6 10 11 9 16 -5 27 -16 12
-16 13 2 6 13 -4 17 -3 12 5 -4 7 -2 12 3 12 6 0 11 5 11 11 0 5 -6 7 -12 3
-10 -6 -10 -5 -1 8 7 8 10 18 6 21 -3 4 -1 7 6 7 7 0 11 -6 8 -14 -4 -9 0 -13
11 -11 9 2 20 4 25 4 4 1 7 6 7 12 0 8 -4 8 -13 0 -10 -8 -14 -7 -14 3 0 8 9
13 22 11 18 -1 22 3 21 24 0 14 -5 29 -11 33 -6 5 -5 8 3 8 6 0 12 5 12 11 0
5 -4 8 -9 5 -5 -4 -8 1 -7 9 2 16 21 21 21 6 0 -18 11 -20 12 -2 1 10 -8 23
-20 29 l-22 11 23 0 c12 1 22 6 22 12 0 5 -5 7 -11 3 -7 -4 -9 0 -5 14 6 17 3
20 -13 17 -11 -2 -23 0 -26 5 -3 5 4 7 16 5 15 -3 19 0 15 10 -2 7 0 16 7 19
9 3 8 5 -1 5 -7 1 -10 6 -6 13 4 6 3 8 -4 4 -5 -3 -12 0 -15 6 -3 7 -4 3 -4
-9 1 -12 5 -19 11 -16 5 4 6 1 1 -7 -6 -10 -11 -9 -21 5 -7 10 -11 21 -9 26 3
4 1 10 -4 14 -6 3 -8 -3 -6 -15 2 -11 -1 -23 -7 -26 -6 -4 -8 -2 -4 4 8 14
-34 12 -53 -2 -11 -8 -13 -8 -7 2 5 8 0 12 -15 12 -17 0 -19 -3 -10 -14 9 -11
9 -16 -1 -22 -7 -4 -10 -4 -6 1 15 16 -13 35 -33 24 -11 -5 -23 -7 -28 -5 -5
3 -12 -1 -15 -10 -9 -22 -8 -26 6 -18 7 4 8 3 4 -4 -4 -6 -13 -9 -21 -6 -8 4
-12 11 -9 16 4 6 -3 5 -15 -1 -11 -7 -21 -14 -21 -17 0 -3 5 -2 10 1 15 9 30
-3 24 -20 -3 -7 -13 -16 -22 -20 -13 -5 -12 -1 4 17 15 19 16 20 1 9 -15 -12
-20 -11 -33 5 -14 18 -15 18 -5 -2 12 -26 4 -36 -18 -25 -9 5 -23 7 -31 6 -9
-2 -17 5 -18 16 -4 42 -6 48 -14 43 -4 -3 -4 -13 1 -23 6 -10 6 -23 0 -32 -6
-10 -9 -11 -9 -1 0 8 -5 10 -12 6 -8 -5 -8 -1 1 10 13 15 13 19 1 26 -8 5 -19
6 -25 3 -5 -4 -6 -2 -2 3 5 5 14 9 19 9 6 0 13 7 15 15 3 9 1 11 -4 5 -10 -12
-53 -13 -72 -1 -11 7 -13 5 -8 -10 7 -18 6 -18 -7 -1 -7 9 -21 17 -30 17 -9 0
-16 7 -16 15 0 8 -5 15 -11 15 -5 0 -7 -5 -3 -12 5 -7 3 -8 -5 -3 -9 5 -9 11
-3 17 12 12 5 38 -10 38 -6 0 -5 -6 2 -15 9 -10 9 -15 1 -15 -6 0 -11 4 -11 8
0 5 -12 14 -26 21 -21 9 -30 9 -42 -1 -12 -10 -14 -10 -8 0 9 15 -25 17 -40 2
-7 -7 -11 -6 -11 4 0 8 5 14 10 13 5 -1 11 4 13 11 1 7 0 8 -3 2 -2 -5 -9 -8
-14 -4 -5 3 -12 -1 -15 -9 -6 -16 -54 -11 -67 7 -6 7 -7 4 -3 -6 3 -10 1 -18
-4 -18 -6 0 -10 3 -10 8 0 4 -9 13 -19 19 -17 11 -19 10 -16 -7 2 -11 -1 -23
-7 -26 -7 -5 -8 -2 -4 5 10 15 -25 11 -37 -4 -5 -5 -6 0 -2 12 3 12 1 24 -4
28 -7 3 -8 0 -5 -9 8 -20 0 -20 -20 0 -9 9 -16 11 -16 4 0 -6 -4 -9 -9 -5 -5
3 -12 1 -15 -4 -4 -5 -1 -13 5 -17 7 -4 9 -3 5 4 -4 7 1 9 15 7 30 -6 35 -13
20 -28 -7 -6 -11 -7 -9 -2 3 8 -6 17 -14 14 -19 -5 -37 -6 -36 -1 3 16 -16 42
-30 42 -13 0 -12 -3 4 -14z m182 -31 c-3 -3 -9 2 -12 12 -6 14 -5 15 5 6 7 -7
10 -15 7 -18z m472 -169 c0 -2 -7 -7 -16 -10 -8 -3 -12 -2 -9 4 6 10 25 14 25
6z m-946 -27 c-8 -14 -21 -11 -21 5 0 8 6 12 14 9 7 -3 10 -9 7 -14z m-77
-209 c2 -19 -8 -26 -20 -14 -7 7 2 34 12 34 4 0 7 -9 8 -20z m1343 -110 c0 -5
-2 -10 -4 -10 -3 0 -8 5 -11 10 -3 6 -1 10 4 10 6 0 11 -4 11 -10z m18 -34
c-7 -8 -15 -12 -17 -11 -5 6 10 25 20 25 5 0 4 -6 -3 -14z m-1178 -146 c0 -5
-5 -10 -11 -10 -5 0 -7 5 -4 10 3 6 8 10 11 10 2 0 4 -4 4 -10z m1267 -85 c0
-20 -4 -19 -17 5 -8 15 -8 18 3 14 8 -3 14 -11 14 -19z m-1179 6 c11 -7 10
-10 -3 -15 -20 -7 -38 1 -30 15 7 11 16 11 33 0z m52 -47 c0 -8 -19 -13 -24
-6 -3 5 1 9 9 9 8 0 15 -2 15 -3z m76 -93 c0 -11 -4 -18 -7 -15 -7 4 -23 -14
-24 -26 0 -3 -6 -14 -13 -25 -11 -19 -12 -19 -9 2 2 12 11 31 22 43 10 11 14
20 9 20 -6 0 9 15 21 20 1 0 1 -9 1 -19z m-252 -49 c3 -5 -1 -9 -9 -9 -8 0
-12 4 -9 9 3 4 7 8 9 8 2 0 6 -4 9 -8z m76 -15 c0 -2 -9 -12 -20 -22 -24 -21
-27 -14 -4 9 15 15 24 20 24 13z m1160 -157 c0 -5 -2 -10 -4 -10 -3 0 -8 5
-11 10 -3 6 -1 10 4 10 6 0 11 -4 11 -10z m-650 -120 c0 -5 -2 -10 -4 -10 -3
0 -8 5 -11 10 -3 6 -1 10 4 10 6 0 11 -4 11 -10z m-576 -108 c3 -5 -1 -9 -9
-9 -8 0 -15 4 -15 9 0 4 4 8 9 8 6 0 12 -4 15 -8z m1017 -59 c13 -16 12 -17
-3 -4 -17 13 -22 21 -14 21 2 0 10 -8 17 -17z m-126 -13 c3 -6 -1 -7 -9 -4
-18 7 -21 14 -7 14 6 0 13 -4 16 -10z m59 2 c3 -5 -1 -9 -9 -9 -8 0 -12 4 -9
9 3 4 7 8 9 8 2 0 6 -4 9 -8z"/>
<path d="M1161 2044 c0 -11 3 -14 6 -6 3 7 2 16 -1 19 -3 4 -6 -2 -5 -13z"/>
<path d="M1421 2043 c-1 -18 13 -23 29 -11 12 8 12 9 -2 5 -9 -3 -19 -1 -22 6
-3 9 -5 9 -5 0z"/>
<path d="M910 1979 c0 -5 5 -7 10 -4 6 3 10 8 10 11 0 2 -4 4 -10 4 -5 0 -10
-5 -10 -11z"/>
<path d="M1941 1964 c0 -11 3 -14 6 -6 3 7 2 16 -1 19 -3 4 -6 -2 -5 -13z"/>
<path d="M850 1966 c0 -2 8 -10 18 -17 15 -13 16 -12 3 4 -13 16 -21 21 -21
13z"/>
<path d="M930 1959 c0 -5 5 -7 10 -4 6 3 10 8 10 11 0 2 -4 4 -10 4 -5 0 -10
-5 -10 -11z"/>
<path d="M1527 1958 c3 -5 8 -7 11 -4 3 3 11 1 19 -5 10 -9 13 -8 13 2 0 11 3
11 11 -1 8 -12 10 -12 7 -1 -2 8 -18 15 -36 16 -17 1 -29 -3 -25 -7z"/>
<path d="M1827 1956 c-4 -10 -1 -13 9 -9 15 6 19 23 5 23 -5 0 -11 -7 -14 -14z"/>
<path d="M1890 1965 c0 -7 30 -13 34 -7 3 4 -4 9 -15 9 -10 1 -19 0 -19 -2z"/>
<path d="M760 1890 c10 -19 4 -26 -23 -21 -5 1 -6 -3 -2 -9 4 -7 12 -7 26 0
15 9 17 15 9 30 -6 11 -13 20 -16 20 -2 0 0 -9 6 -20z"/>
<path d="M628 1693 c7 -3 16 -2 19 1 4 3 -2 6 -13 5 -11 0 -14 -3 -6 -6z"/>
<path d="M663 1548 c-2 -18 0 -20 7 -8 12 18 13 30 2 30 -4 0 -9 -10 -9 -22z"/>
<path d="M781 1291 c-9 -6 -10 -11 -2 -15 6 -4 11 -2 11 4 0 6 5 8 10 5 6 -3
10 -1 10 4 0 13 -10 14 -29 2z"/>
<path d="M857 1276 c-4 -10 1 -12 14 -9 23 6 24 9 5 16 -8 3 -17 0 -19 -7z"/>
<path d="M836 1077 c3 -10 9 -15 12 -12 3 3 0 11 -7 18 -10 9 -11 8 -5 -6z"/>
<path d="M2116 1081 c-3 -5 0 -11 7 -14 8 -3 14 1 14 9 0 16 -13 19 -21 5z"/>
<path d="M950 1026 c0 -2 7 -7 16 -10 8 -3 12 -2 9 4 -6 10 -25 14 -25 6z"/>
<path d="M935 1011 c3 -5 1 -12 -5 -16 -5 -3 -10 -1 -10 6 0 7 -3 9 -6 6 -4
-4 -1 -13 6 -22 10 -12 16 -13 26 -4 18 15 18 25 -2 33 -8 3 -12 2 -9 -3z"/>
<path d="M683 998 c2 -7 -9 -21 -24 -30 -25 -15 -32 -38 -16 -54 3 -4 5 3 2
15 -3 15 4 25 25 36 19 10 27 20 24 30 -7 18 -17 20 -11 3z"/>
<path d="M2105 961 c-6 -11 13 -26 22 -17 4 3 1 6 -6 6 -7 0 -9 5 -6 10 3 6 4
10 1 10 -3 0 -7 -4 -11 -9z"/>
<path d="M1187 894 c-8 -8 3 -34 15 -34 6 0 5 6 -2 15 -15 18 0 20 20 3 12
-11 12 -10 1 5 -14 18 -24 21 -34 11z"/>
<path d="M2036 821 c-3 -5 1 -14 9 -21 10 -9 15 -9 15 -1 0 6 -5 11 -11 11 -5
0 -7 5 -4 10 3 6 4 10 1 10 -3 0 -7 -4 -10 -9z"/>
<path d="M609 803 c-13 -16 -12 -17 4 -4 9 7 17 15 17 17 0 8 -8 3 -21 -13z"/>
<path d="M1033 715 c0 -8 4 -12 9 -9 5 3 6 10 3 15 -9 13 -12 11 -12 -6z"/>
<path d="M965 680 c-3 -5 -1 -10 5 -10 6 0 8 -5 4 -12 -4 -7 -3 -8 4 -4 6 4 9
13 5 21 -6 18 -10 19 -18 5z"/>
<path d="M1896 651 c-3 -4 6 -7 19 -7 14 0 22 2 19 5 -8 8 -34 10 -38 2z"/>
<path d="M1799 578 c-8 -27 -6 -38 5 -29 7 6 17 7 22 3 4 -4 2 1 -5 11 -12 16
-20 21 -22 15z"/>
<path d="M1718 543 c7 -3 16 -2 19 1 4 3 -2 6 -13 5 -11 0 -14 -3 -6 -6z"/>
<path d="M1758 543 c7 -3 16 -2 19 1 4 3 -2 6 -13 5 -11 0 -14 -3 -6 -6z"/>
</g>
</svg>
